<svg width="2511" height="52" viewBox="0 0 2511 52" fill="none" xmlns="http://www.w3.org/2000/svg">
<path d="M4 26C31.8111 -2 59.6222 -2 87.4333 26C115.244 54 143.056 54 170.867 26C198.678 -2 226.489 -2 254.3 26C282.111 54 309.922 54 337.733 26C365.544 -2 393.356 -2 421.167 26C448.978 54 476.789 54 504.6 26C532.411 -2 560.222 -2 588.033 26C615.844 54 643.656 54 671.467 26C699.278 -2 727.089 -2 754.9 26C782.711 54 810.522 54 838.333 26C866.144 -2 893.956 -2 921.767 26C949.578 54 977.389 54 1005.2 26C1033.01 -2 1060.82 -2 1088.63 26C1116.44 54 1144.26 54 1172.07 26C1199.88 -2 1227.69 -2 1255.5 26C1283.31 54 1311.12 54 1338.93 26C1366.74 -2 1394.56 -2 1422.37 26C1450.18 54 1477.99 54 1505.8 26C1533.61 -2 1561.42 -2 1589.23 26C1617.04 54 1644.86 54 1672.67 26C1700.48 -2 1728.29 -2 1756.1 26C1783.91 54 1811.72 54 1839.53 26C1867.34 -2 1895.16 -2 1922.97 26C1950.78 54 1978.59 54 2006.4 26C2034.21 -2 2062.02 -2 2089.83 26C2117.64 54 2145.46 54 2173.27 26C2201.08 -2 2228.89 -2 2256.7 26C2284.51 54 2312.32 54 2340.13 26C2367.94 -2 2395.76 -2 2423.57 26C2451.38 54 2479.19 54 2507 26" stroke="#CCC289" stroke-width="10"/>
</svg>
